<svg width="119" height="16" viewBox="0 0 119 16" fill="none" xmlns="http://www.w3.org/2000/svg">
<path d="M4.784 12.208C6.336 12.208 7.696 11.408 8.384 10.128L6.896 9.28C6.512 10.032 5.712 10.512 4.768 10.512C4.064 10.512 3.472 10.272 2.992 9.792C2.528 9.312 2.288 8.72 2.288 8C2.288 7.28 2.528 6.688 2.992 6.208C3.472 5.728 4.064 5.488 4.768 5.488C5.728 5.488 6.496 5.952 6.864 6.72L8.352 5.856C7.712 4.592 6.336 3.792 4.784 3.792C3.584 3.792 2.576 4.192 1.76 5.008C0.96 5.808 0.56 6.8 0.56 8C0.56 9.184 0.96 10.176 1.76 10.992C2.576 11.808 3.584 12.208 4.784 12.208ZM14.484 12.208C15.668 12.208 16.66 11.808 17.476 10.992C18.292 10.176 18.708 9.184 18.708 8C18.708 6.816 18.292 5.824 17.476 5.008C16.66 4.192 15.668 3.792 14.484 3.792C13.316 3.792 12.308 4.192 11.492 5.008C10.676 5.824 10.26 6.816 10.26 8C10.26 9.184 10.676 10.176 11.492 10.992C12.308 11.808 13.316 12.208 14.484 12.208ZM12.708 9.808C12.228 9.328 11.988 8.72 11.988 8C11.988 7.28 12.228 6.672 12.708 6.192C13.188 5.712 13.78 5.472 14.484 5.472C15.188 5.472 15.78 5.712 16.26 6.192C16.74 6.672 16.98 7.28 16.98 8C16.98 8.72 16.74 9.328 16.26 9.808C15.78 10.288 15.188 10.528 14.484 10.528C13.78 10.528 13.188 10.288 12.708 9.808ZM30.2065 3.792C29.1025 3.792 28.2865 4.208 27.7585 5.056C27.2625 4.208 26.5105 3.792 25.4865 3.792C24.4785 3.792 23.7105 4.176 23.1985 4.96V4H21.4705V12H23.1985V7.52C23.1985 6.128 23.9345 5.408 24.9745 5.408C25.9345 5.408 26.4785 6.048 26.4785 7.152V12H28.2065V7.52C28.2065 6.112 28.8785 5.408 29.9505 5.408C30.9105 5.408 31.5025 6.048 31.5025 7.152V12H33.2305V7.04C33.2305 5.056 32.0145 3.792 30.2065 3.792ZM40.8079 3.792C39.5919 3.792 38.6639 4.24 38.0079 5.152V4H36.2799V15.2H38.0079V10.864C38.6639 11.76 39.5919 12.208 40.8079 12.208C41.9119 12.208 42.8399 11.808 43.6239 10.992C44.4079 10.176 44.7919 9.184 44.7919 8C44.7919 6.832 44.4079 5.84 43.6239 5.024C42.8399 4.208 41.9119 3.792 40.8079 3.792ZM38.7279 9.84C38.2479 9.344 38.0079 8.736 38.0079 8C38.0079 7.264 38.2479 6.656 38.7279 6.176C39.2079 5.68 39.8159 5.44 40.5359 5.44C41.2559 5.44 41.8639 5.68 42.3439 6.176C42.8239 6.656 43.0639 7.264 43.0639 8C43.0639 8.736 42.8239 9.344 42.3439 9.84C41.8639 10.32 41.2559 10.56 40.5359 10.56C39.8159 10.56 39.2079 10.32 38.7279 9.84ZM53.894 5.136C53.238 4.24 52.31 3.792 51.094 3.792C49.99 3.792 49.062 4.192 48.278 5.008C47.494 5.824 47.11 6.816 47.11 8C47.11 9.168 47.494 10.176 48.278 10.992C49.062 11.808 49.99 12.208 51.094 12.208C52.31 12.208 53.238 11.76 53.894 10.848V12H55.622V4H53.894V5.136ZM49.558 9.84C49.078 9.344 48.838 8.736 48.838 8C48.838 7.264 49.078 6.656 49.558 6.176C50.038 5.68 50.646 5.44 51.366 5.44C52.086 5.44 52.694 5.68 53.174 6.176C53.654 6.656 53.894 7.264 53.894 8C53.894 8.736 53.654 9.344 53.174 9.84C52.694 10.32 52.086 10.56 51.366 10.56C50.646 10.56 50.038 10.32 49.558 9.84ZM63.0441 3.792C61.9081 3.792 61.0921 4.208 60.5641 5.024V4H58.8361V12H60.5641V7.712C60.5641 6.16 61.3801 5.408 62.5961 5.408C63.7001 5.408 64.3881 6.064 64.3881 7.264V12H66.1161V7.088C66.1161 5.04 64.8841 3.792 63.0441 3.792ZM72.3645 9.808L69.9805 4H68.0925L71.4845 11.856L71.4045 12.016C70.9725 13.12 70.3645 13.648 69.2765 13.584V15.2C71.1165 15.312 72.4125 14.32 73.1805 12.256L76.2525 4H74.4125L72.3645 9.808ZM85.461 12V0.32H83.733V12H85.461ZM92.4434 12.208C93.6274 12.208 94.6194 11.808 95.4354 10.992C96.2514 10.176 96.6674 9.184 96.6674 8C96.6674 6.816 96.2514 5.824 95.4354 5.008C94.6194 4.192 93.6274 3.792 92.4434 3.792C91.2754 3.792 90.2674 4.192 89.4514 5.008C88.6354 5.824 88.2194 6.816 88.2194 8C88.2194 9.184 88.6354 10.176 89.4514 10.992C90.2674 11.808 91.2754 12.208 92.4434 12.208ZM90.6674 9.808C90.1874 9.328 89.9474 8.72 89.9474 8C89.9474 7.28 90.1874 6.672 90.6674 6.192C91.1474 5.712 91.7394 5.472 92.4434 5.472C93.1474 5.472 93.7394 5.712 94.2194 6.192C94.6994 6.672 94.9394 7.28 94.9394 8C94.9394 8.72 94.6994 9.328 94.2194 9.808C93.7394 10.288 93.1474 10.528 92.4434 10.528C91.7394 10.528 91.1474 10.288 90.6674 9.808ZM105.798 5.184C105.142 4.256 104.214 3.792 103.014 3.792C101.878 3.792 100.934 4.192 100.15 5.008C99.3659 5.808 98.9819 6.784 98.9819 7.92C98.9819 9.056 99.3659 10.032 100.15 10.848C100.934 11.648 101.878 12.048 103.014 12.048C104.214 12.048 105.142 11.584 105.798 10.656V11.632C105.798 13.024 104.902 13.84 103.414 13.84C102.278 13.84 101.494 13.424 101.078 12.608L99.5899 13.472C100.278 14.768 101.542 15.408 103.382 15.408C104.518 15.408 105.494 15.088 106.294 14.432C107.094 13.776 107.494 12.848 107.494 11.632V4H105.798V5.184ZM101.43 9.712C100.95 9.232 100.71 8.64 100.71 7.92C100.71 7.2 100.95 6.608 101.43 6.128C101.926 5.648 102.534 5.408 103.254 5.408C103.974 5.408 104.582 5.648 105.062 6.128C105.558 6.608 105.798 7.2 105.798 7.92C105.798 8.64 105.558 9.232 105.062 9.712C104.582 10.192 103.974 10.432 103.254 10.432C102.534 10.432 101.926 10.192 101.43 9.712ZM114.484 12.208C115.668 12.208 116.66 11.808 117.476 10.992C118.292 10.176 118.708 9.184 118.708 8C118.708 6.816 118.292 5.824 117.476 5.008C116.66 4.192 115.668 3.792 114.484 3.792C113.316 3.792 112.308 4.192 111.492 5.008C110.676 5.824 110.26 6.816 110.26 8C110.26 9.184 110.676 10.176 111.492 10.992C112.308 11.808 113.316 12.208 114.484 12.208ZM112.708 9.808C112.228 9.328 111.988 8.72 111.988 8C111.988 7.28 112.228 6.672 112.708 6.192C113.188 5.712 113.78 5.472 114.484 5.472C115.188 5.472 115.78 5.712 116.26 6.192C116.74 6.672 116.98 7.28 116.98 8C116.98 8.72 116.74 9.328 116.26 9.808C115.78 10.288 115.188 10.528 114.484 10.528C113.78 10.528 113.188 10.288 112.708 9.808Z" fill="#E04E39"/>
</svg>
