<svg width="24" height="24" viewBox="0 0 24 24" fill="none" xmlns="http://www.w3.org/2000/svg">
<path d="M12.1324 9.54851C13.2516 9.54851 14.1588 8.64128 14.1588 7.52215C14.1588 6.40302 13.2516 5.49579 12.1324 5.49579C11.0133 5.49579 10.1061 6.40302 10.1061 7.52215C10.1061 8.64128 11.0133 9.54851 12.1324 9.54851Z" fill="#E04E39"/>
<path d="M12 0C5.37265 0 0 5.37265 0 12C0 18.6274 5.37265 24 12 24C18.6274 24 24 18.6274 24 12C24 5.37265 18.6274 0 12 0ZM12.1324 3.40323C14.4072 3.40323 16.2513 5.24732 16.2513 7.52214C16.2513 9.79697 14.4072 11.6411 12.1324 11.6411C9.85756 11.6411 8.01347 9.79697 8.01347 7.52214C8.01347 5.24732 9.85756 3.40323 12.1324 3.40323ZM15.7938 14.0152C14.9182 14.5773 13.718 14.79 12.934 14.8708L16.0172 17.9538C16.3859 18.3227 16.3861 18.9206 16.0172 19.2895L15.906 19.4007C15.5371 19.7696 14.9392 19.7696 14.5702 19.4007C13.9534 18.7838 13.0642 17.8946 12.1431 16.9736L9.71593 19.4007C9.34702 19.7694 8.74911 19.7696 8.38019 19.4007L8.26898 19.2895C7.90006 18.9206 7.90006 18.3227 8.26898 17.9538C8.88587 17.3369 9.77506 16.4477 10.6961 15.5266L11.35 14.8727C10.5667 14.7936 9.35359 14.5819 8.47047 14.0149C7.43673 13.3513 6.97875 12.9578 7.38417 12.1433C7.61681 11.6761 8.26071 11.2875 9.11681 11.962C10.2737 12.8736 12.1321 12.8736 12.1321 12.8736C12.1321 12.8736 13.9906 12.8736 15.1475 11.962C16.0036 11.2875 16.6475 11.6761 16.8801 12.1433C17.2855 12.9581 16.8275 13.3516 15.7938 14.0152Z" fill="#E04E39"/>
</svg>
