<svg width="13" height="12" viewBox="0 0 13 12" fill="none" xmlns="http://www.w3.org/2000/svg">
<path d="M12 2C12.5523 2 13 1.55228 13 1C13 0.447715 12.5523 0 12 0C11.4477 0 11 0.447715 11 1C11 1.55228 11.4477 2 12 2Z" fill="white"/>
<path d="M8.78048 2H0V12H2.4439V8.74662H7.12682L9.26341 12H12L9.64388 8.73162C10.3756 8.61169 10.9024 8.32684 11.2244 7.87707C11.5463 7.4273 11.7073 6.70763 11.7073 5.74814V4.99848C11.7073 4.42878 11.6488 3.97901 11.5463 3.63417C11.4439 3.28937 11.2683 2.98948 11.0195 2.71963C10.7561 2.46477 10.4634 2.28485 10.1122 2.16492C9.76094 2.05995 9.32192 2 8.78048 2ZM8.38537 6.54271H2.4439V4.20391H8.38537C8.72192 4.20391 8.95609 4.26386 9.07316 4.36883C9.19022 4.47377 9.26341 4.66868 9.26341 4.95353V5.79309C9.26341 6.09294 9.19022 6.28785 9.07316 6.39279C8.95609 6.49776 8.72192 6.54271 8.38537 6.54271Z" fill="white"/>
</svg>
